<svg width="21" height="18" viewBox="0 0 21 18" fill="none" xmlns="http://www.w3.org/2000/svg">
<path d="M17.3643 0.542636H19.2636C19.5633 0.542636 19.8062 0.785583 19.8062 1.08527V16.2791C19.8062 16.5788 19.5633 16.8217 19.2636 16.8217H17.3643C17.0646 16.8217 16.8217 16.5788 16.8217 16.2791V1.08527C16.8217 0.785583 17.0647 0.542636 17.3643 0.542636ZM1.08527 11.3953H2.98449C3.28418 11.3953 3.52713 11.6383 3.52713 11.938V16.2791C3.52713 16.5788 3.28418 16.8217 2.9845 16.8217H1.08527C0.785582 16.8217 0.542636 16.5788 0.542636 16.2791V11.938C0.542636 11.6383 0.785582 11.3953 1.08527 11.3953ZM9.2248 5.96899H11.124C11.4237 5.96899 11.6667 6.21194 11.6667 6.51163V16.2791C11.6667 16.5788 11.4237 16.8217 11.124 16.8217H9.22481C8.92512 16.8217 8.68217 16.5788 8.68217 16.2791V6.51163C8.68217 6.21194 8.92511 5.96899 9.2248 5.96899Z" fill="#B7B7B7" stroke="#B7B7B7" stroke-width="1.08527"/>
<path d="M0.542636 11.9378C0.542636 11.6381 0.785582 11.3952 1.08527 11.3952H2.9845C3.28419 11.3952 3.52713 11.6381 3.52713 11.9378V16.2789C3.52713 16.5786 3.28419 16.8215 2.9845 16.8215H1.08527C0.785582 16.8215 0.542636 16.5786 0.542636 16.2789V11.9378Z" fill="#FF6600" stroke="#FF6600" stroke-width="1.08527"/>
</svg>
