<svg width="29" height="29" viewBox="0 0 29 29" fill="none" xmlns="http://www.w3.org/2000/svg">
<path d="M18.427 19.3332C18.427 18.8327 18.8327 18.4269 19.3333 18.4269C19.8338 18.4269 20.2395 18.8327 20.2395 19.3332H18.427ZM20.2395 9.6665C20.2395 10.167 19.8338 10.5728 19.3333 10.5728C18.8327 10.5728 18.427 10.167 18.427 9.6665H20.2395ZM14.4999 3.32275H8.45825V1.51025H14.4999V3.32275ZM4.53117 7.24984V21.7498H2.71867V7.24984H4.53117ZM8.45825 25.6769H14.4999V27.4894H8.45825V25.6769ZM18.427 21.7498V19.3332H20.2395V21.7498H18.427ZM18.427 9.6665V7.24984H20.2395V9.6665H18.427ZM14.4999 25.6769C16.6688 25.6769 18.427 23.9187 18.427 21.7498H20.2395C20.2395 24.9197 17.6698 27.4894 14.4999 27.4894V25.6769ZM4.53117 21.7498C4.53117 23.9187 6.28938 25.6769 8.45825 25.6769V27.4894C5.28837 27.4894 2.71867 24.9197 2.71867 21.7498H4.53117ZM8.45825 3.32275C6.28938 3.32275 4.53117 5.08097 4.53117 7.24984H2.71867C2.71867 4.07995 5.28836 1.51025 8.45825 1.51025V3.32275ZM14.4999 1.51025C17.6698 1.51025 20.2395 4.07995 20.2395 7.24984H18.427C18.427 5.08097 16.6688 3.32275 14.4999 3.32275V1.51025Z" fill="#1B1816"/>
<path d="M22.9583 18.125L25.7288 15.3544C26.2007 14.8825 26.2007 14.1175 25.7288 13.6456L22.9583 10.875" stroke="#FF6600" stroke-width="1.8125" stroke-linecap="round"/>
<path d="M25.375 14.5L10.875 14.5" stroke="#FF6600" stroke-width="1.8125" stroke-linecap="round"/>
</svg>
