<svg width="76" height="76" viewBox="0 0 76 76" fill="none" xmlns="http://www.w3.org/2000/svg">
<path d="M30.1162 6.76097C29.8387 6.19435 29.3388 5.84766 28.7994 5.84766H13.9534C12.7597 5.84766 12.0224 7.44283 12.6366 8.69667L29.2215 42.5576C29.4991 43.1242 29.9989 43.4709 30.5383 43.4709H45.3843C46.578 43.4709 47.3153 41.8758 46.7012 40.6219L30.1162 6.76097Z" fill="#F76300"/>
<path d="M46.1138 6.76097C46.3913 6.19435 46.8912 5.84766 47.4306 5.84766H62.2766C63.4703 5.84766 64.2075 7.44283 63.5934 8.69667L47.0085 42.5576C46.7309 43.1242 46.2311 43.4709 45.6917 43.4709H30.8456C29.652 43.4709 28.9147 41.8758 29.5288 40.6219L46.1138 6.76097Z" fill="#FF6600"/>
<path fill-rule="evenodd" clip-rule="evenodd" d="M47.7143 6.91493C48.081 7.17577 48.2057 7.7514 47.9927 8.20063L41.0823 22.7797C40.8694 23.2289 40.3995 23.3816 40.0328 23.1208C39.6661 22.8599 39.5414 22.2843 39.7543 21.8351L46.6647 7.25603C46.8777 6.8068 47.3476 6.65409 47.7143 6.91493Z" fill="#FF8F44"/>
<path fill-rule="evenodd" clip-rule="evenodd" d="M13.9268 6.91493C13.5601 7.17577 13.4354 7.7514 13.6484 8.20063L20.5588 22.7797C20.7717 23.2289 21.2416 23.3816 21.6083 23.1208C21.975 22.8599 22.0997 22.2843 21.8868 21.8351L14.9764 7.25603C14.7634 6.8068 14.2935 6.65409 13.9268 6.91493Z" fill="#FF8431"/>
<path d="M59.2778 48.2852C59.2778 59.9732 49.8028 69.4482 38.1147 69.4482C26.4267 69.4482 16.9517 59.9732 16.9517 48.2852C16.9517 36.5971 26.4267 27.1221 38.1147 27.1221C49.8028 27.1221 59.2778 36.5971 59.2778 48.2852Z" fill="#F2F2F2"/>
<path fill-rule="evenodd" clip-rule="evenodd" d="M60.8452 48.2854C60.8452 60.8392 50.6683 71.0161 38.1145 71.0161C25.5607 71.0161 15.3838 60.8392 15.3838 48.2854C15.3838 35.7316 25.5607 25.5547 38.1145 25.5547C50.6683 25.5547 60.8452 35.7316 60.8452 48.2854ZM38.1145 69.4485C49.8026 69.4485 59.2776 59.9735 59.2776 48.2854C59.2776 36.5974 49.8026 27.1223 38.1145 27.1223C26.4265 27.1223 16.9514 36.5974 16.9514 48.2854C16.9514 59.9735 26.4265 69.4485 38.1145 69.4485Z" fill="#DCDCDC"/>
<path d="M53.7907 48.2852C53.7907 56.9431 46.7722 63.9616 38.1144 63.9616C29.4565 63.9616 22.438 56.9431 22.438 48.2852C22.438 39.6274 29.4565 32.6089 38.1144 32.6089C46.7722 32.6089 53.7907 39.6274 53.7907 48.2852Z" fill="#F2F2F2"/>
<path fill-rule="evenodd" clip-rule="evenodd" d="M55.3586 48.2855C55.3586 57.8091 47.6382 65.5295 38.1146 65.5295C28.591 65.5295 20.8706 57.8091 20.8706 48.2855C20.8706 38.7619 28.591 31.0415 38.1146 31.0415C47.6382 31.0415 55.3586 38.7619 55.3586 48.2855ZM38.1146 63.9619C46.7724 63.9619 53.791 56.9433 53.791 48.2855C53.791 39.6277 46.7724 32.6091 38.1146 32.6091C29.4568 32.6091 22.4382 39.6277 22.4382 48.2855C22.4382 56.9433 29.4568 63.9619 38.1146 63.9619Z" fill="#DCDCDC"/>
<path fill-rule="evenodd" clip-rule="evenodd" d="M38.1147 34.9607C30.7556 34.9607 24.7898 40.9265 24.7898 48.2856C24.7898 48.7185 24.4389 49.0694 24.006 49.0694C23.5731 49.0694 23.2222 48.7185 23.2222 48.2856C23.2222 40.0607 29.8898 33.3931 38.1147 33.3931C38.5476 33.3931 38.8985 33.744 38.8985 34.1769C38.8985 34.6098 38.5476 34.9607 38.1147 34.9607Z" fill="#ECECEC"/>
<path d="M29.4932 46.2481L34.8819 45.1508L36.4985 42.4074L38.1152 39.6641L41.3484 45.1508L46.7372 46.2481L42.4262 50.6375L43.5039 56.1242L38.1152 53.3809L32.7264 56.1242L33.8042 50.6375L29.4932 46.2481Z" fill="url(#paint0_linear_201_4232)"/>
<path fill-rule="evenodd" clip-rule="evenodd" d="M34.8817 45.1506L38.115 39.6638L41.3482 45.1506L46.737 46.2479L42.426 50.6373L43.5037 56.124L38.115 53.3806L32.7262 56.124L33.804 50.6373L29.493 46.2479L34.8817 45.1506ZM32.1064 51.1461L28.3745 47.3464C27.9719 46.9364 27.8258 46.339 27.9939 45.7895C28.1619 45.24 28.6171 44.8264 29.1802 44.7118L33.8853 43.7536L36.7644 38.868C37.0462 38.3897 37.5599 38.0962 38.115 38.0962C38.67 38.0962 39.1837 38.3897 39.4655 38.868L42.3446 43.7536L47.0498 44.7118C47.6128 44.8264 48.068 45.24 48.2361 45.7895C48.4041 46.339 48.258 46.9364 47.8554 47.3464L44.1235 51.1461L45.042 55.8219C45.1576 56.4104 44.9272 57.0134 44.4486 57.3749C43.97 57.7364 43.327 57.7932 42.7925 57.521L38.115 55.1397L33.4374 57.521C32.9029 57.7932 32.26 57.7364 31.7813 57.3749C31.3027 57.0134 31.0724 56.4104 31.188 55.8219L32.1064 51.1461Z" fill="url(#paint1_linear_201_4232)"/>
<defs>
<linearGradient id="paint0_linear_201_4232" x1="32.2788" y1="56.1242" x2="39.7673" y2="38.2326" gradientUnits="userSpaceOnUse">
<stop stop-color="#FF6600"/>
<stop offset="1" stop-color="#FF934A"/>
</linearGradient>
<linearGradient id="paint1_linear_201_4232" x1="31.2174" y1="57.6917" x2="40.178" y2="36.4387" gradientUnits="userSpaceOnUse">
<stop stop-color="#FF6600"/>
<stop offset="1" stop-color="#FF934A"/>
</linearGradient>
</defs>
</svg>
