<svg width="185" height="95" viewBox="0 0 185 95" fill="none" xmlns="http://www.w3.org/2000/svg">
<rect width="95" height="95" fill="#FF6600"/>
<path d="M5.95215 80.5425V80.2617C5.95215 79.3096 6.09049 78.4266 6.36719 77.6128C6.64388 76.7909 7.04264 76.0788 7.56348 75.4766C8.09245 74.8662 8.73535 74.3942 9.49219 74.0605C10.2572 73.7188 11.1198 73.5479 12.0801 73.5479C13.0485 73.5479 13.9111 73.7188 14.668 74.0605C15.4329 74.3942 16.0799 74.8662 16.6089 75.4766C17.1379 76.0788 17.5407 76.7909 17.8174 77.6128C18.0941 78.4266 18.2324 79.3096 18.2324 80.2617V80.5425C18.2324 81.4946 18.0941 82.3776 17.8174 83.1914C17.5407 84.0052 17.1379 84.7173 16.6089 85.3276C16.0799 85.9299 15.437 86.4019 14.6802 86.7437C13.9233 87.0773 13.0648 87.2441 12.1045 87.2441C11.1361 87.2441 10.2694 87.0773 9.50439 86.7437C8.74756 86.4019 8.10465 85.9299 7.57568 85.3276C7.04671 84.7173 6.64388 84.0052 6.36719 83.1914C6.09049 82.3776 5.95215 81.4946 5.95215 80.5425ZM8.89404 80.2617V80.5425C8.89404 81.1366 8.95508 81.6981 9.07715 82.2271C9.19922 82.756 9.39046 83.2199 9.65088 83.6187C9.9113 84.0174 10.245 84.3307 10.6519 84.5586C11.0588 84.7865 11.543 84.9004 12.1045 84.9004C12.6497 84.9004 13.1217 84.7865 13.5205 84.5586C13.9274 84.3307 14.2611 84.0174 14.5215 83.6187C14.7819 83.2199 14.9731 82.756 15.0952 82.2271C15.2254 81.6981 15.2905 81.1366 15.2905 80.5425V80.2617C15.2905 79.6758 15.2254 79.1224 15.0952 78.6016C14.9731 78.0726 14.7778 77.6047 14.5093 77.1978C14.2489 76.7909 13.9152 76.4735 13.5083 76.2456C13.1095 76.0096 12.6335 75.8916 12.0801 75.8916C11.5267 75.8916 11.0465 76.0096 10.6396 76.2456C10.2409 76.4735 9.9113 76.7909 9.65088 77.1978C9.39046 77.6047 9.19922 78.0726 9.07715 78.6016C8.95508 79.1224 8.89404 79.6758 8.89404 80.2617ZM24.1523 76.3066V87H21.2104V73.792H24.0181L24.1523 76.3066ZM28.1929 73.7065L28.1685 76.4409C27.9894 76.4084 27.7941 76.384 27.5825 76.3677C27.3791 76.3514 27.1756 76.3433 26.9722 76.3433C26.4676 76.3433 26.0241 76.4165 25.6416 76.563C25.2591 76.7013 24.9377 76.9048 24.6772 77.1733C24.425 77.4338 24.2297 77.7511 24.0913 78.1255C23.953 78.4998 23.8716 78.9189 23.8472 79.3828L23.1758 79.4316C23.1758 78.6016 23.2572 77.8325 23.4199 77.1245C23.5827 76.4165 23.8268 75.7939 24.1523 75.2568C24.486 74.7197 24.901 74.3006 25.3975 73.9995C25.902 73.6984 26.4839 73.5479 27.1431 73.5479C27.3221 73.5479 27.5133 73.5641 27.7168 73.5967C27.9284 73.6292 28.0871 73.6659 28.1929 73.7065ZM37.543 84.3511V78.0522C37.543 77.5802 37.4575 77.1733 37.2866 76.8315C37.1157 76.4897 36.8553 76.2253 36.5054 76.0381C36.1636 75.8509 35.7323 75.7573 35.2114 75.7573C34.7313 75.7573 34.3162 75.8387 33.9663 76.0015C33.6164 76.1642 33.3438 76.384 33.1484 76.6606C32.9531 76.9373 32.8555 77.2507 32.8555 77.6006H29.9258C29.9258 77.0798 30.0519 76.5752 30.3042 76.0869C30.5565 75.5986 30.9227 75.1632 31.4028 74.7808C31.883 74.3983 32.4567 74.0972 33.124 73.8774C33.7913 73.6577 34.54 73.5479 35.3701 73.5479C36.363 73.5479 37.2419 73.7147 38.0068 74.0483C38.7799 74.382 39.3862 74.8866 39.8257 75.562C40.2733 76.2293 40.4971 77.0675 40.4971 78.0767V83.9482C40.4971 84.5505 40.5378 85.0916 40.6191 85.5718C40.7087 86.0438 40.8348 86.4548 40.9976 86.8047V87H37.9824C37.8441 86.6826 37.7342 86.2798 37.6528 85.7915C37.5796 85.2951 37.543 84.8149 37.543 84.3511ZM37.9702 78.9678L37.9946 80.7866H35.8828C35.3376 80.7866 34.8574 80.8395 34.4424 80.9453C34.0273 81.043 33.6815 81.1895 33.4048 81.3848C33.1281 81.5801 32.9206 81.8161 32.7822 82.0928C32.6439 82.3695 32.5747 82.6828 32.5747 83.0327C32.5747 83.3826 32.6561 83.7041 32.8188 83.9971C32.9816 84.2819 33.2176 84.5057 33.5269 84.6685C33.8442 84.8312 34.2267 84.9126 34.6743 84.9126C35.2765 84.9126 35.8014 84.7905 36.249 84.5464C36.7048 84.2941 37.0628 83.9889 37.3232 83.6309C37.5837 83.2646 37.722 82.9188 37.7383 82.5933L38.6904 83.8994C38.5928 84.2331 38.4259 84.5911 38.1899 84.9736C37.9539 85.3561 37.6447 85.7223 37.2622 86.0723C36.8879 86.4141 36.4362 86.6948 35.9072 86.9146C35.3864 87.1343 34.7842 87.2441 34.1006 87.2441C33.238 87.2441 32.4689 87.0732 31.7935 86.7314C31.118 86.3815 30.589 85.9136 30.2065 85.3276C29.8241 84.7336 29.6328 84.0622 29.6328 83.3135C29.6328 82.6136 29.763 81.9951 30.0234 81.458C30.292 80.9128 30.6826 80.457 31.1953 80.0908C31.7161 79.7246 32.3509 79.4479 33.0996 79.2607C33.8483 79.0654 34.7028 78.9678 35.6631 78.9678H37.9702ZM46.9907 76.6118V87H44.0488V73.792H46.8198L46.9907 76.6118ZM46.4658 79.9077L45.5137 79.8955C45.5218 78.9596 45.652 78.1011 45.9043 77.3198C46.1647 76.5386 46.5228 75.8672 46.9785 75.3057C47.4424 74.7441 47.9958 74.3128 48.6387 74.0117C49.2816 73.7025 49.9977 73.5479 50.7871 73.5479C51.4219 73.5479 51.9956 73.6374 52.5083 73.8164C53.0291 73.9873 53.4727 74.2681 53.8389 74.6587C54.2132 75.0493 54.498 75.5579 54.6934 76.1846C54.8887 76.8031 54.9863 77.564 54.9863 78.4673V87H52.0322V78.4551C52.0322 77.8203 51.9386 77.3198 51.7515 76.9536C51.5724 76.5793 51.3079 76.3148 50.958 76.1602C50.6162 75.9974 50.189 75.916 49.6763 75.916C49.1717 75.916 48.7201 76.0218 48.3213 76.2334C47.9225 76.445 47.5848 76.7339 47.3081 77.1001C47.0396 77.4663 46.832 77.8895 46.6855 78.3696C46.5391 78.8498 46.4658 79.3625 46.4658 79.9077ZM66.9487 73.792H69.6221V86.6338C69.6221 87.8219 69.3698 88.8311 68.8652 89.6611C68.3607 90.4912 67.6567 91.1219 66.7534 91.5532C65.8501 91.9927 64.8044 92.2124 63.6162 92.2124C63.1117 92.2124 62.5501 92.1392 61.9316 91.9927C61.3213 91.8462 60.7272 91.6102 60.1494 91.2847C59.5798 90.9673 59.1037 90.5482 58.7212 90.0273L60.1006 88.2939C60.5726 88.8555 61.0934 89.2664 61.6631 89.5269C62.2327 89.7873 62.8309 89.9175 63.4575 89.9175C64.133 89.9175 64.7067 89.7913 65.1787 89.5391C65.6589 89.2949 66.0291 88.9328 66.2896 88.4526C66.55 87.9725 66.6802 87.3866 66.6802 86.6948V76.7827L66.9487 73.792ZM57.9766 80.5425V80.2861C57.9766 79.2852 58.0986 78.3737 58.3428 77.5518C58.5869 76.7217 58.9368 76.0096 59.3926 75.4155C59.8483 74.8133 60.4017 74.3535 61.0527 74.0361C61.7038 73.7106 62.4403 73.5479 63.2622 73.5479C64.1167 73.5479 64.8451 73.7025 65.4473 74.0117C66.0576 74.321 66.5662 74.7645 66.9731 75.3423C67.38 75.9119 67.6974 76.5955 67.9253 77.3931C68.1613 78.1825 68.3363 79.0614 68.4502 80.0298V80.8477C68.3444 81.7917 68.1654 82.6543 67.9131 83.4355C67.6608 84.2168 67.3271 84.8923 66.9121 85.4619C66.4971 86.0316 65.9844 86.471 65.374 86.7803C64.7718 87.0895 64.0597 87.2441 63.2378 87.2441C62.4321 87.2441 61.7038 87.0773 61.0527 86.7437C60.4098 86.41 59.8564 85.9421 59.3926 85.3398C58.9368 84.7376 58.5869 84.0296 58.3428 83.2158C58.0986 82.3939 57.9766 81.5028 57.9766 80.5425ZM60.9185 80.2861V80.5425C60.9185 81.1447 60.9754 81.7062 61.0894 82.2271C61.2114 82.7479 61.3945 83.2077 61.6387 83.6064C61.891 83.9971 62.2083 84.3063 62.5908 84.5342C62.9814 84.7539 63.4412 84.8638 63.9702 84.8638C64.6619 84.8638 65.2275 84.7173 65.667 84.4243C66.1146 84.1313 66.4564 83.7367 66.6924 83.2402C66.9365 82.7357 67.1074 82.1742 67.2051 81.5557V79.3462C67.1562 78.866 67.0545 78.4185 66.8999 78.0034C66.7534 77.5884 66.554 77.2262 66.3018 76.917C66.0495 76.5996 65.7321 76.3555 65.3496 76.1846C64.9671 76.0055 64.5155 75.916 63.9946 75.916C63.4657 75.916 63.0059 76.0299 62.6152 76.2578C62.2246 76.4857 61.9032 76.799 61.6509 77.1978C61.4067 77.5965 61.2236 78.0604 61.1016 78.5894C60.9795 79.1183 60.9185 79.6839 60.9185 80.2861ZM78.9966 87.2441C78.02 87.2441 77.137 87.0854 76.3477 86.7681C75.5664 86.4425 74.8991 85.9909 74.3457 85.4131C73.8005 84.8353 73.3813 84.1558 73.0884 83.3745C72.7954 82.5933 72.6489 81.751 72.6489 80.8477V80.3594C72.6489 79.3258 72.7995 78.39 73.1006 77.5518C73.4017 76.7135 73.8208 75.9974 74.3579 75.4033C74.895 74.8011 75.5298 74.3413 76.2622 74.0239C76.9946 73.7065 77.7881 73.5479 78.6426 73.5479C79.5866 73.5479 80.4126 73.7065 81.1206 74.0239C81.8286 74.3413 82.4146 74.7889 82.8784 75.3667C83.3504 75.9364 83.7004 76.6159 83.9282 77.4053C84.1642 78.1947 84.2822 79.0654 84.2822 80.0176V81.2749H74.0771V79.1631H81.377V78.9312C81.3607 78.4022 81.2549 77.9058 81.0596 77.4419C80.8724 76.978 80.5835 76.6037 80.1929 76.3188C79.8022 76.034 79.2814 75.8916 78.6304 75.8916C78.1421 75.8916 77.7067 75.9974 77.3242 76.209C76.9499 76.4124 76.6366 76.7095 76.3843 77.1001C76.132 77.4907 75.9367 77.9627 75.7983 78.5161C75.6681 79.0614 75.603 79.6758 75.603 80.3594V80.8477C75.603 81.4255 75.6803 81.9626 75.835 82.459C75.9977 82.9473 76.2337 83.3745 76.543 83.7407C76.8522 84.1069 77.2266 84.3958 77.666 84.6074C78.1055 84.8109 78.606 84.9126 79.1675 84.9126C79.8755 84.9126 80.5062 84.7702 81.0596 84.4854C81.613 84.2005 82.0931 83.7977 82.5 83.2769L84.0503 84.7783C83.7655 85.1934 83.3952 85.5921 82.9395 85.9746C82.4837 86.349 81.9263 86.6541 81.2671 86.8901C80.616 87.1261 79.8592 87.2441 78.9966 87.2441Z" fill="white"/>
<path d="M84.1885 68.7344V73H83.459V68.7344H84.1885ZM85.5273 68.7344V69.3203H82.1318V68.7344H85.5273ZM86.8887 68.7344H87.5449L88.7783 72.0244L90.0088 68.7344H90.665L89.0361 73H88.5146L86.8887 68.7344ZM86.5898 68.7344H87.2139L87.3223 71.582V73H86.5898V68.7344ZM90.3398 68.7344H90.9668V73H90.2314V71.582L90.3398 68.7344Z" fill="white"/>
<path d="M117.089 17.6616V18.5771C117.089 19.9199 116.91 21.1284 116.552 22.2026C116.194 23.2687 115.685 24.1761 115.026 24.9248C114.367 25.6735 113.581 26.2472 112.67 26.646C111.758 27.0448 110.745 27.2441 109.63 27.2441C108.532 27.2441 107.523 27.0448 106.603 26.646C105.692 26.2472 104.902 25.6735 104.235 24.9248C103.568 24.1761 103.051 23.2687 102.685 22.2026C102.318 21.1284 102.135 19.9199 102.135 18.5771V17.6616C102.135 16.3107 102.318 15.1022 102.685 14.0361C103.051 12.9701 103.563 12.0627 104.223 11.314C104.882 10.5571 105.667 9.97933 106.579 9.58057C107.498 9.1818 108.507 8.98242 109.606 8.98242C110.721 8.98242 111.734 9.1818 112.646 9.58057C113.557 9.97933 114.342 10.5571 115.001 11.314C115.669 12.0627 116.181 12.9701 116.54 14.0361C116.906 15.1022 117.089 16.3107 117.089 17.6616ZM113.695 18.5771V17.6372C113.695 16.6688 113.606 15.8184 113.427 15.0859C113.248 14.3454 112.983 13.7228 112.633 13.2183C112.283 12.7137 111.852 12.3353 111.339 12.083C110.827 11.8226 110.249 11.6924 109.606 11.6924C108.955 11.6924 108.377 11.8226 107.873 12.083C107.376 12.3353 106.953 12.7137 106.603 13.2183C106.253 13.7228 105.985 14.3454 105.797 15.0859C105.618 15.8184 105.529 16.6688 105.529 17.6372V18.5771C105.529 19.5374 105.618 20.3879 105.797 21.1284C105.985 21.869 106.253 22.4956 106.603 23.0083C106.961 23.5129 107.392 23.8953 107.897 24.1558C108.402 24.4162 108.979 24.5464 109.63 24.5464C110.281 24.5464 110.859 24.4162 111.364 24.1558C111.868 23.8953 112.292 23.5129 112.633 23.0083C112.983 22.4956 113.248 21.869 113.427 21.1284C113.606 20.3879 113.695 19.5374 113.695 18.5771ZM123.412 16.4897V27H120.189V13.792H123.241L123.412 16.4897ZM127.428 13.7065L127.379 16.7095C127.2 16.6769 126.996 16.6525 126.769 16.6362C126.549 16.62 126.341 16.6118 126.146 16.6118C125.65 16.6118 125.214 16.681 124.84 16.8193C124.465 16.9495 124.152 17.1408 123.9 17.3931C123.656 17.6453 123.469 17.9546 123.338 18.3208C123.208 18.6789 123.135 19.0858 123.119 19.5415L122.423 19.4561C122.423 18.6178 122.508 17.8407 122.679 17.1245C122.85 16.4084 123.098 15.7817 123.424 15.2446C123.749 14.7075 124.156 14.2925 124.645 13.9995C125.141 13.6984 125.711 13.5479 126.354 13.5479C126.533 13.5479 126.724 13.5641 126.927 13.5967C127.139 13.6211 127.306 13.6577 127.428 13.7065ZM136.558 24.1924V18.1011C136.558 17.6535 136.481 17.2669 136.326 16.9414C136.172 16.6159 135.936 16.3636 135.618 16.1846C135.301 16.0055 134.898 15.916 134.41 15.916C133.978 15.916 133.6 15.9893 133.274 16.1357C132.957 16.2822 132.713 16.4897 132.542 16.7583C132.371 17.0187 132.286 17.3198 132.286 17.6616H129.051C129.051 17.1164 129.181 16.5996 129.441 16.1113C129.702 15.6149 130.072 15.1755 130.552 14.793C131.041 14.4023 131.622 14.0972 132.298 13.8774C132.981 13.6577 133.746 13.5479 134.593 13.5479C135.594 13.5479 136.485 13.7188 137.266 14.0605C138.056 14.3942 138.674 14.8988 139.122 15.5742C139.577 16.2497 139.805 17.1001 139.805 18.1255V23.8872C139.805 24.5464 139.846 25.112 139.927 25.584C140.017 26.0479 140.147 26.4507 140.318 26.7925V27H137.034C136.88 26.6663 136.762 26.2432 136.68 25.7305C136.599 25.2096 136.558 24.6969 136.558 24.1924ZM137.01 18.9556L137.034 20.8721H134.996C134.491 20.8721 134.048 20.925 133.665 21.0308C133.283 21.1284 132.969 21.2749 132.725 21.4702C132.481 21.6574 132.298 21.8853 132.176 22.1538C132.054 22.4142 131.993 22.7113 131.993 23.0449C131.993 23.3704 132.066 23.6634 132.212 23.9238C132.367 24.1842 132.587 24.3918 132.872 24.5464C133.165 24.6929 133.506 24.7661 133.897 24.7661C134.467 24.7661 134.963 24.6522 135.386 24.4243C135.809 24.1883 136.139 23.9035 136.375 23.5698C136.611 23.2362 136.737 22.9188 136.753 22.6177L137.681 24.0093C137.567 24.3429 137.396 24.6969 137.168 25.0713C136.941 25.4456 136.648 25.7956 136.29 26.1211C135.931 26.4466 135.5 26.7152 134.996 26.9268C134.491 27.1383 133.905 27.2441 133.238 27.2441C132.383 27.2441 131.618 27.0732 130.943 26.7314C130.267 26.3896 129.734 25.9217 129.344 25.3276C128.953 24.7336 128.758 24.0581 128.758 23.3013C128.758 22.6014 128.888 21.9829 129.148 21.4458C129.409 20.9087 129.795 20.457 130.308 20.0908C130.821 19.7165 131.456 19.4357 132.212 19.2485C132.977 19.0532 133.852 18.9556 134.837 18.9556H137.01ZM146.372 16.6118V27H143.149V13.792H146.177L146.372 16.6118ZM145.859 19.9199H144.907C144.915 18.9596 145.046 18.0889 145.298 17.3076C145.55 16.5264 145.904 15.855 146.36 15.2935C146.824 14.7319 147.373 14.3006 148.008 13.9995C148.643 13.6984 149.351 13.5479 150.132 13.5479C150.767 13.5479 151.34 13.6374 151.853 13.8164C152.366 13.9954 152.805 14.2803 153.171 14.6709C153.546 15.0615 153.831 15.5742 154.026 16.209C154.229 16.8356 154.331 17.6087 154.331 18.5283V27H151.084V18.5039C151.084 17.9017 150.994 17.4256 150.815 17.0757C150.645 16.7257 150.392 16.4775 150.059 16.3311C149.733 16.1846 149.33 16.1113 148.85 16.1113C148.354 16.1113 147.918 16.2131 147.544 16.4165C147.178 16.6118 146.868 16.8844 146.616 17.2344C146.372 17.5843 146.185 17.9871 146.055 18.4429C145.924 18.8986 145.859 19.391 145.859 19.9199ZM166.074 13.792H169.003V26.5972C169.003 27.7935 168.743 28.8066 168.222 29.6367C167.709 30.4749 166.989 31.1097 166.062 31.541C165.134 31.9805 164.056 32.2002 162.827 32.2002C162.298 32.2002 161.724 32.127 161.105 31.9805C160.495 31.834 159.905 31.6021 159.335 31.2847C158.774 30.9754 158.306 30.5726 157.932 30.0762L159.384 28.1719C159.824 28.6846 160.32 29.0711 160.874 29.3315C161.427 29.6001 162.025 29.7344 162.668 29.7344C163.319 29.7344 163.872 29.6123 164.328 29.3682C164.792 29.1322 165.146 28.7822 165.39 28.3184C165.642 27.8626 165.769 27.3011 165.769 26.6338V16.8071L166.074 13.792ZM157.15 20.5547V20.2983C157.15 19.2892 157.272 18.3737 157.517 17.5518C157.761 16.7217 158.111 16.0096 158.566 15.4155C159.03 14.8215 159.588 14.3617 160.239 14.0361C160.898 13.7106 161.639 13.5479 162.46 13.5479C163.331 13.5479 164.064 13.7065 164.658 14.0239C165.26 14.3413 165.756 14.793 166.147 15.3789C166.546 15.9648 166.855 16.6606 167.075 17.4663C167.303 18.2638 167.478 19.1427 167.6 20.103V20.7988C167.486 21.7347 167.303 22.5933 167.05 23.3745C166.806 24.1558 166.481 24.8394 166.074 25.4253C165.667 26.0031 165.162 26.4507 164.56 26.7681C163.958 27.0854 163.25 27.2441 162.436 27.2441C161.622 27.2441 160.89 27.0773 160.239 26.7437C159.588 26.41 159.03 25.9421 158.566 25.3398C158.111 24.7376 157.761 24.0296 157.517 23.2158C157.272 22.402 157.15 21.515 157.15 20.5547ZM160.373 20.2983V20.5547C160.373 21.1243 160.43 21.6574 160.544 22.1538C160.658 22.6502 160.833 23.0897 161.069 23.4722C161.305 23.8465 161.602 24.1395 161.96 24.3511C162.318 24.5627 162.745 24.6685 163.242 24.6685C163.909 24.6685 164.454 24.5301 164.877 24.2534C165.309 23.9686 165.634 23.582 165.854 23.0938C166.082 22.5973 166.228 22.0399 166.293 21.4214V19.5049C166.253 19.0166 166.163 18.5649 166.025 18.1499C165.895 17.7349 165.712 17.3768 165.476 17.0757C165.24 16.7746 164.938 16.5386 164.572 16.3677C164.206 16.1968 163.771 16.1113 163.266 16.1113C162.778 16.1113 162.351 16.2212 161.984 16.4409C161.618 16.6525 161.317 16.9495 161.081 17.332C160.845 17.7145 160.666 18.158 160.544 18.6626C160.43 19.1672 160.373 19.7124 160.373 20.2983ZM178.341 27.2441C177.34 27.2441 176.441 27.0814 175.644 26.7559C174.846 26.4303 174.167 25.9787 173.605 25.4009C173.052 24.8149 172.624 24.1354 172.323 23.3623C172.03 22.5811 171.884 21.7428 171.884 20.8477V20.3594C171.884 19.3421 172.03 18.4185 172.323 17.5884C172.616 16.7502 173.031 16.0299 173.568 15.4277C174.105 14.8255 174.748 14.3617 175.497 14.0361C176.246 13.7106 177.072 13.5479 177.975 13.5479C178.911 13.5479 179.737 13.7065 180.453 14.0239C181.169 14.3332 181.767 14.7726 182.248 15.3423C182.728 15.9119 183.09 16.5955 183.334 17.3931C183.578 18.1825 183.7 19.0573 183.7 20.0176V21.3726H173.349V19.1509H180.526V18.9067C180.51 18.394 180.412 17.9261 180.233 17.5029C180.054 17.0716 179.778 16.7298 179.403 16.4775C179.029 16.2171 178.545 16.0869 177.951 16.0869C177.471 16.0869 177.051 16.1927 176.693 16.4043C176.343 16.6077 176.05 16.9007 175.814 17.2832C175.587 17.6576 175.416 18.1051 175.302 18.626C175.188 19.1468 175.131 19.7246 175.131 20.3594V20.8477C175.131 21.401 175.204 21.9137 175.351 22.3857C175.505 22.8577 175.729 23.2687 176.022 23.6187C176.323 23.9604 176.681 24.229 177.096 24.4243C177.519 24.6115 178 24.7051 178.537 24.7051C179.212 24.7051 179.822 24.5749 180.368 24.3145C180.921 24.0459 181.401 23.6512 181.808 23.1304L183.432 24.8149C183.155 25.2218 182.781 25.6125 182.309 25.9868C181.845 26.3612 181.283 26.6663 180.624 26.9023C179.965 27.1302 179.204 27.2441 178.341 27.2441Z" fill="black"/>
<path d="M108.007 57H104.174L104.198 54.3633H108.007C109.04 54.3633 109.907 54.1354 110.607 53.6797C111.307 53.2158 111.836 52.5526 112.194 51.6899C112.552 50.8192 112.731 49.7775 112.731 48.5649V47.6494C112.731 46.7135 112.629 45.8875 112.426 45.1714C112.222 44.4552 111.921 43.853 111.522 43.3647C111.132 42.8765 110.648 42.5062 110.07 42.2539C109.492 42.0016 108.829 41.8755 108.08 41.8755H104.101V39.2266H108.08C109.268 39.2266 110.351 39.4259 111.327 39.8247C112.312 40.2235 113.162 40.7972 113.878 41.5459C114.603 42.2865 115.156 43.1735 115.539 44.207C115.929 45.2406 116.125 46.3962 116.125 47.6738V48.5649C116.125 49.8345 115.929 50.9901 115.539 52.0317C115.156 53.0653 114.603 53.9523 113.878 54.6929C113.162 55.4334 112.308 56.0031 111.315 56.4019C110.322 56.8006 109.219 57 108.007 57ZM106.054 39.2266V57H102.697V39.2266H106.054ZM122.655 43.792V57H119.42V43.792H122.655ZM119.2 40.3374C119.2 39.8573 119.363 39.4585 119.688 39.1411C120.022 38.8237 120.47 38.665 121.031 38.665C121.593 38.665 122.036 38.8237 122.362 39.1411C122.695 39.4585 122.862 39.8573 122.862 40.3374C122.862 40.8094 122.695 41.2041 122.362 41.5215C122.036 41.8389 121.593 41.9976 121.031 41.9976C120.47 41.9976 120.022 41.8389 119.688 41.5215C119.363 41.2041 119.2 40.8094 119.2 40.3374ZM134.629 43.792H137.559V56.5972C137.559 57.7935 137.299 58.8066 136.778 59.6367C136.265 60.4749 135.545 61.1097 134.617 61.541C133.689 61.9805 132.611 62.2002 131.382 62.2002C130.853 62.2002 130.28 62.127 129.661 61.9805C129.051 61.834 128.461 61.6021 127.891 61.2847C127.33 60.9754 126.862 60.5726 126.487 60.0762L127.94 58.1719C128.379 58.6846 128.876 59.0711 129.429 59.3315C129.983 59.6001 130.581 59.7344 131.224 59.7344C131.875 59.7344 132.428 59.6123 132.884 59.3682C133.348 59.1322 133.702 58.7822 133.946 58.3184C134.198 57.8626 134.324 57.3011 134.324 56.6338V46.8071L134.629 43.792ZM125.706 50.5547V50.2983C125.706 49.2892 125.828 48.3737 126.072 47.5518C126.316 46.7217 126.666 46.0096 127.122 45.4155C127.586 44.8215 128.143 44.3617 128.794 44.0361C129.454 43.7106 130.194 43.5479 131.016 43.5479C131.887 43.5479 132.619 43.7065 133.213 44.0239C133.816 44.3413 134.312 44.793 134.703 45.3789C135.101 45.9648 135.411 46.6606 135.63 47.4663C135.858 48.2638 136.033 49.1427 136.155 50.103V50.7988C136.041 51.7347 135.858 52.5933 135.606 53.3745C135.362 54.1558 135.036 54.8394 134.629 55.4253C134.222 56.0031 133.718 56.4507 133.116 56.7681C132.514 57.0854 131.806 57.2441 130.992 57.2441C130.178 57.2441 129.445 57.0773 128.794 56.7437C128.143 56.41 127.586 55.9421 127.122 55.3398C126.666 54.7376 126.316 54.0296 126.072 53.2158C125.828 52.402 125.706 51.515 125.706 50.5547ZM128.929 50.2983V50.5547C128.929 51.1243 128.986 51.6574 129.1 52.1538C129.214 52.6502 129.389 53.0897 129.625 53.4722C129.861 53.8465 130.158 54.1395 130.516 54.3511C130.874 54.5627 131.301 54.6685 131.797 54.6685C132.465 54.6685 133.01 54.5301 133.433 54.2534C133.864 53.9686 134.19 53.582 134.41 53.0938C134.638 52.5973 134.784 52.0399 134.849 51.4214V49.5049C134.808 49.0166 134.719 48.5649 134.581 48.1499C134.45 47.7349 134.267 47.3768 134.031 47.0757C133.795 46.7746 133.494 46.5386 133.128 46.3677C132.762 46.1968 132.326 46.1113 131.822 46.1113C131.333 46.1113 130.906 46.2212 130.54 46.4409C130.174 46.6525 129.873 46.9495 129.637 47.332C129.401 47.7145 129.222 48.158 129.1 48.6626C128.986 49.1672 128.929 49.7124 128.929 50.2983ZM144.382 43.792V57H141.147V43.792H144.382ZM140.928 40.3374C140.928 39.8573 141.09 39.4585 141.416 39.1411C141.75 38.8237 142.197 38.665 142.759 38.665C143.32 38.665 143.764 38.8237 144.089 39.1411C144.423 39.4585 144.59 39.8573 144.59 40.3374C144.59 40.8094 144.423 41.2041 144.089 41.5215C143.764 41.8389 143.32 41.9976 142.759 41.9976C142.197 41.9976 141.75 41.8389 141.416 41.5215C141.09 41.2041 140.928 40.8094 140.928 40.3374ZM154.208 43.792V46.1113H146.64V43.792H154.208ZM148.667 40.5449H151.901V53.1914C151.901 53.582 151.954 53.8831 152.06 54.0947C152.166 54.3063 152.325 54.4487 152.536 54.522C152.748 54.5952 153 54.6318 153.293 54.6318C153.505 54.6318 153.7 54.6196 153.879 54.5952C154.058 54.5708 154.208 54.5464 154.331 54.522L154.343 56.939C154.074 57.0285 153.769 57.1017 153.427 57.1587C153.094 57.2157 152.715 57.2441 152.292 57.2441C151.568 57.2441 150.933 57.1221 150.388 56.8779C149.842 56.6257 149.419 56.2228 149.118 55.6694C148.817 55.1079 148.667 54.3674 148.667 53.4478V40.5449ZM164.132 54.1924V48.1011C164.132 47.6535 164.055 47.2669 163.9 46.9414C163.746 46.6159 163.51 46.3636 163.192 46.1846C162.875 46.0055 162.472 45.916 161.984 45.916C161.553 45.916 161.174 45.9893 160.849 46.1357C160.531 46.2822 160.287 46.4897 160.116 46.7583C159.945 47.0187 159.86 47.3198 159.86 47.6616H156.625C156.625 47.1164 156.755 46.5996 157.016 46.1113C157.276 45.6149 157.646 45.1755 158.126 44.793C158.615 44.4023 159.197 44.0972 159.872 43.8774C160.556 43.6577 161.321 43.5479 162.167 43.5479C163.168 43.5479 164.059 43.7188 164.84 44.0605C165.63 44.3942 166.248 44.8988 166.696 45.5742C167.152 46.2497 167.379 47.1001 167.379 48.1255V53.8872C167.379 54.5464 167.42 55.112 167.501 55.584C167.591 56.0479 167.721 56.4507 167.892 56.7925V57H164.608C164.454 56.6663 164.336 56.2432 164.254 55.7305C164.173 55.2096 164.132 54.6969 164.132 54.1924ZM164.584 48.9556L164.608 50.8721H162.57C162.065 50.8721 161.622 50.925 161.239 51.0308C160.857 51.1284 160.543 51.2749 160.299 51.4702C160.055 51.6574 159.872 51.8853 159.75 52.1538C159.628 52.4142 159.567 52.7113 159.567 53.0449C159.567 53.3704 159.64 53.6634 159.787 53.9238C159.941 54.1842 160.161 54.3918 160.446 54.5464C160.739 54.6929 161.081 54.7661 161.471 54.7661C162.041 54.7661 162.537 54.6522 162.96 54.4243C163.384 54.1883 163.713 53.9035 163.949 53.5698C164.185 53.2362 164.311 52.9188 164.328 52.6177L165.255 54.0093C165.141 54.3429 164.971 54.6969 164.743 55.0713C164.515 55.4456 164.222 55.7956 163.864 56.1211C163.506 56.4466 163.074 56.7152 162.57 56.9268C162.065 57.1383 161.479 57.2441 160.812 57.2441C159.958 57.2441 159.193 57.0732 158.517 56.7314C157.842 56.3896 157.309 55.9217 156.918 55.3276C156.527 54.7336 156.332 54.0581 156.332 53.3013C156.332 52.6014 156.462 51.9829 156.723 51.4458C156.983 50.9087 157.37 50.457 157.882 50.0908C158.395 49.7165 159.03 49.4357 159.787 49.2485C160.552 49.0532 161.426 48.9556 162.411 48.9556H164.584ZM174.203 38.25V57H170.968V38.25H174.203Z" fill="black"/>
<path d="M113.097 81.1528H116.454C116.365 82.341 116.035 83.3949 115.465 84.3145C114.896 85.2259 114.102 85.9421 113.085 86.4629C112.068 86.9837 110.835 87.2441 109.386 87.2441C108.271 87.2441 107.266 87.0488 106.371 86.6582C105.484 86.2594 104.723 85.6938 104.088 84.9614C103.462 84.2209 102.982 83.3338 102.648 82.3003C102.314 81.2586 102.147 80.0908 102.147 78.7969V77.4419C102.147 76.1479 102.318 74.9801 102.66 73.9385C103.002 72.8968 103.49 72.0098 104.125 71.2773C104.768 70.5368 105.537 69.9671 106.432 69.5684C107.335 69.1696 108.345 68.9702 109.459 68.9702C110.908 68.9702 112.133 69.2388 113.134 69.7759C114.135 70.3049 114.912 71.0332 115.465 71.9609C116.019 72.8887 116.352 73.9548 116.466 75.1592H113.109C113.044 74.4105 112.882 73.7757 112.621 73.2549C112.369 72.734 111.986 72.3394 111.474 72.0708C110.969 71.7941 110.298 71.6558 109.459 71.6558C108.808 71.6558 108.235 71.7778 107.738 72.022C107.25 72.2661 106.843 72.6323 106.518 73.1206C106.192 73.6007 105.948 74.203 105.785 74.9272C105.622 75.6434 105.541 76.4735 105.541 77.4175V78.7969C105.541 79.7002 105.614 80.5099 105.761 81.2261C105.907 81.9422 106.135 82.5485 106.444 83.0449C106.754 83.5413 107.152 83.9198 107.641 84.1802C108.129 84.4406 108.711 84.5708 109.386 84.5708C110.208 84.5708 110.875 84.4406 111.388 84.1802C111.909 83.9198 112.304 83.5373 112.572 83.0327C112.849 82.5282 113.024 81.9015 113.097 81.1528ZM125.243 87.2441C124.242 87.2441 123.342 87.0814 122.545 86.7559C121.747 86.4303 121.068 85.9787 120.506 85.4009C119.953 84.8149 119.526 84.1354 119.225 83.3623C118.932 82.5811 118.785 81.7428 118.785 80.8477V80.3594C118.785 79.3421 118.932 78.4185 119.225 77.5884C119.518 76.7502 119.933 76.0299 120.47 75.4277C121.007 74.8255 121.65 74.3617 122.398 74.0361C123.147 73.7106 123.973 73.5479 124.876 73.5479C125.812 73.5479 126.638 73.7065 127.354 74.0239C128.071 74.3332 128.669 74.7726 129.149 75.3423C129.629 75.9119 129.991 76.5955 130.235 77.3931C130.479 78.1825 130.602 79.0573 130.602 80.0176V81.3726H120.25V79.1509H127.428V78.9067C127.411 78.394 127.314 77.9261 127.135 77.5029C126.956 77.0716 126.679 76.7298 126.305 76.4775C125.93 76.2171 125.446 76.0869 124.852 76.0869C124.372 76.0869 123.953 76.1927 123.595 76.4043C123.245 76.6077 122.952 76.9007 122.716 77.2832C122.488 77.6576 122.317 78.1051 122.203 78.626C122.089 79.1468 122.032 79.7246 122.032 80.3594V80.8477C122.032 81.401 122.105 81.9137 122.252 82.3857C122.407 82.8577 122.63 83.2687 122.923 83.6187C123.224 83.9604 123.583 84.229 123.998 84.4243C124.421 84.6115 124.901 84.7051 125.438 84.7051C126.113 84.7051 126.724 84.5749 127.269 84.3145C127.822 84.0459 128.303 83.6512 128.709 83.1304L130.333 84.8149C130.056 85.2218 129.682 85.6125 129.21 85.9868C128.746 86.3612 128.185 86.6663 127.525 86.9023C126.866 87.1302 126.105 87.2441 125.243 87.2441ZM136.424 76.6118V87H133.201V73.792H136.229L136.424 76.6118ZM135.911 79.9199H134.959C134.967 78.9596 135.097 78.0889 135.35 77.3076C135.602 76.5264 135.956 75.855 136.412 75.2935C136.875 74.7319 137.425 74.3006 138.06 73.9995C138.694 73.6984 139.402 73.5479 140.184 73.5479C140.818 73.5479 141.392 73.6374 141.905 73.8164C142.417 73.9954 142.857 74.2803 143.223 74.6709C143.597 75.0615 143.882 75.5742 144.078 76.209C144.281 76.8356 144.383 77.6087 144.383 78.5283V87H141.136V78.5039C141.136 77.9017 141.046 77.4256 140.867 77.0757C140.696 76.7257 140.444 76.4775 140.11 76.3311C139.785 76.1846 139.382 76.1113 138.902 76.1113C138.405 76.1113 137.97 76.2131 137.596 76.4165C137.229 76.6118 136.92 76.8844 136.668 77.2344C136.424 77.5843 136.237 77.9871 136.106 78.4429C135.976 78.8986 135.911 79.391 135.911 79.9199ZM153.977 73.792V76.1113H146.409V73.792H153.977ZM148.435 70.5449H151.67V83.1914C151.67 83.582 151.723 83.8831 151.829 84.0947C151.934 84.3063 152.093 84.4487 152.305 84.522C152.516 84.5952 152.769 84.6318 153.062 84.6318C153.273 84.6318 153.468 84.6196 153.647 84.5952C153.826 84.5708 153.977 84.5464 154.099 84.522L154.111 86.939C153.843 87.0285 153.538 87.1017 153.196 87.1587C152.862 87.2157 152.484 87.2441 152.061 87.2441C151.336 87.2441 150.701 87.1221 150.156 86.8779C149.611 86.6257 149.188 86.2228 148.887 85.6694C148.586 85.1079 148.435 84.3674 148.435 83.4478V70.5449ZM162.558 87.2441C161.557 87.2441 160.658 87.0814 159.86 86.7559C159.063 86.4303 158.383 85.9787 157.822 85.4009C157.268 84.8149 156.841 84.1354 156.54 83.3623C156.247 82.5811 156.101 81.7428 156.101 80.8477V80.3594C156.101 79.3421 156.247 78.4185 156.54 77.5884C156.833 76.7502 157.248 76.0299 157.785 75.4277C158.322 74.8255 158.965 74.3617 159.714 74.0361C160.463 73.7106 161.289 73.5479 162.192 73.5479C163.128 73.5479 163.954 73.7065 164.67 74.0239C165.386 74.3332 165.984 74.7726 166.464 75.3423C166.944 75.9119 167.307 76.5955 167.551 77.3931C167.795 78.1825 167.917 79.0573 167.917 80.0176V81.3726H157.565V79.1509H164.743V78.9067C164.727 78.394 164.629 77.9261 164.45 77.5029C164.271 77.0716 163.994 76.7298 163.62 76.4775C163.246 76.2171 162.762 76.0869 162.167 76.0869C161.687 76.0869 161.268 76.1927 160.91 76.4043C160.56 76.6077 160.267 76.9007 160.031 77.2832C159.803 77.6576 159.632 78.1051 159.519 78.626C159.405 79.1468 159.348 79.7246 159.348 80.3594V80.8477C159.348 81.401 159.421 81.9137 159.567 82.3857C159.722 82.8577 159.946 83.2687 160.239 83.6187C160.54 83.9604 160.898 84.229 161.313 84.4243C161.736 84.6115 162.216 84.7051 162.753 84.7051C163.429 84.7051 164.039 84.5749 164.584 84.3145C165.138 84.0459 165.618 83.6512 166.025 83.1304L167.648 84.8149C167.372 85.2218 166.997 85.6125 166.525 85.9868C166.062 86.3612 165.5 86.6663 164.841 86.9023C164.182 87.1302 163.421 87.2441 162.558 87.2441ZM173.8 76.4897V87H170.578V73.792H173.629L173.8 76.4897ZM177.816 73.7065L177.768 76.7095C177.589 76.6769 177.385 76.6525 177.157 76.6362C176.938 76.62 176.73 76.6118 176.535 76.6118C176.038 76.6118 175.603 76.681 175.229 76.8193C174.854 76.9495 174.541 77.1408 174.289 77.3931C174.044 77.6453 173.857 77.9546 173.727 78.3208C173.597 78.6789 173.524 79.0858 173.507 79.5415L172.812 79.4561C172.812 78.6178 172.897 77.8407 173.068 77.1245C173.239 76.4084 173.487 75.7817 173.812 75.2446C174.138 74.7075 174.545 74.2925 175.033 73.9995C175.53 73.6984 176.099 73.5479 176.742 73.5479C176.921 73.5479 177.112 73.5641 177.316 73.5967C177.528 73.6211 177.694 73.6577 177.816 73.7065Z" fill="black"/>
</svg>
